<?xml version="1.0" standalone="no"?><svg xmlns="http://www.w3.org/2000/svg" viewBox="0 0 1440 320"><path fill="#0099ff" fill-opacity="1" d="M0,64L12.6,64C25.3,64,51,64,76,101.3C101.1,139,126,213,152,234.7C176.8,256,202,224,227,208C252.6,192,278,192,303,202.7C328.4,213,354,235,379,213.3C404.2,192,429,128,455,101.3C480,75,505,85,531,122.7C555.8,160,581,224,606,213.3C631.6,203,657,117,682,117.3C707.4,117,733,203,758,202.7C783.2,203,808,117,834,80C858.9,43,884,53,909,58.7C934.7,64,960,64,985,74.7C1010.5,85,1036,107,1061,117.3C1086.3,128,1112,128,1137,160C1162.1,192,1187,256,1213,261.3C1237.9,267,1263,213,1288,197.3C1313.7,181,1339,203,1364,181.3C1389.5,160,1415,96,1427,64L1440,32L1440,0L1427.4,0C1414.7,0,1389,0,1364,0C1338.9,0,1314,0,1288,0C1263.2,0,1238,0,1213,0C1187.4,0,1162,0,1137,0C1111.6,0,1086,0,1061,0C1035.8,0,1011,0,985,0C960,0,935,0,909,0C884.2,0,859,0,834,0C808.4,0,783,0,758,0C732.6,0,707,0,682,0C656.8,0,632,0,606,0C581.1,0,556,0,531,0C505.3,0,480,0,455,0C429.5,0,404,0,379,0C353.7,0,328,0,303,0C277.9,0,253,0,227,0C202.1,0,177,0,152,0C126.3,0,101,0,76,0C50.5,0,25,0,13,0L0,0Z"></path></svg>